<svg width="605" height="101" viewBox="0 0 605 101" fill="none" xmlns="http://www.w3.org/2000/svg">
<path d="M134.091 99.1819H153.773V60.7273H191.636V44.5H153.773V22.3182H195.727V6.09095H134.091V99.1819Z" fill="white"/>
<path d="M227.966 6.09095H208.602V99.1819H227.966V6.09095Z" fill="white"/>
<path d="M275.023 100.546C296.205 100.546 309.386 86.0455 309.386 64.5455C309.386 42.9091 296.205 28.4546 275.023 28.4546C253.841 28.4546 240.659 42.9091 240.659 64.5455C240.659 86.0455 253.841 100.546 275.023 100.546ZM275.114 85.5455C265.341 85.5455 260.341 76.591 260.341 64.4091C260.341 52.2273 265.341 43.2273 275.114 43.2273C284.705 43.2273 289.705 52.2273 289.705 64.4091C289.705 76.591 284.705 85.5455 275.114 85.5455Z" fill="white"/>
<path d="M334 99.1819H354.455L366.455 55.2728H367.318L379.318 99.1819H399.818L418.773 29.3637H399.227L388.591 76H388L376.545 29.3637H357.318L346.045 76.2728H345.409L334.591 29.3637H315L334 99.1819Z" fill="white"/>
<path d="M429.102 99.1819H448.466V59.6819C448.466 51.091 454.739 45.1819 463.284 45.1819C465.966 45.1819 469.648 45.6364 471.466 46.2273V29.0455C469.739 28.6364 467.33 28.3637 465.375 28.3637C457.557 28.3637 451.148 32.9091 448.602 41.5455H447.875V29.3637H429.102V99.1819Z" fill="white"/>
<path d="M481.477 99.1819H500.841V29.3637H481.477V99.1819ZM491.205 20.3637C496.977 20.3637 501.705 15.9546 501.705 10.5455C501.705 5.18186 496.977 0.772766 491.205 0.772766C485.477 0.772766 480.75 5.18186 480.75 10.5455C480.75 15.9546 485.477 20.3637 491.205 20.3637Z" fill="white"/>
<path d="M553.898 29.3637H540.034V24.6819C540.034 19.9546 541.943 17.1819 547.625 17.1819C549.943 17.1819 552.307 17.6819 553.852 18.1819L557.261 3.63641C554.852 2.90913 549.534 1.72731 543.58 1.72731C530.443 1.72731 520.67 9.13641 520.67 24.3182V29.3637H510.807V43.9091H520.67V99.1819H540.034V43.9091H553.898V29.3637Z" fill="white"/>
<path d="M602.864 29.3637H589.727V12.6364H570.364V29.3637H560.818V43.9091H570.364V80.2728C570.273 93.9546 579.591 100.727 593.636 100.136C598.636 99.9546 602.182 98.9546 604.136 98.3182L601.091 83.9091C600.136 84.091 598.091 84.5455 596.273 84.5455C592.409 84.5455 589.727 83.091 589.727 77.7273V43.9091H602.864V29.3637Z" fill="white"/>
<path d="M96 6.18188V53.1819L48 100.182H0V53.1819L48 6.18188H96Z" fill="#2DD4BF"/>
</svg>
