<svg width="605" height="100" viewBox="0 0 605 100" fill="none" xmlns="http://www.w3.org/2000/svg">
<path d="M134.091 98.4091H153.773V59.9545H191.636V43.7273H153.773V21.5455H195.727V5.31818H134.091V98.4091Z" fill="#27272A"/>
<path d="M227.966 5.31818H208.602V98.4091H227.966V5.31818Z" fill="#27272A"/>
<path d="M275.023 99.7727C296.205 99.7727 309.386 85.2727 309.386 63.7727C309.386 42.1364 296.205 27.6818 275.023 27.6818C253.841 27.6818 240.659 42.1364 240.659 63.7727C240.659 85.2727 253.841 99.7727 275.023 99.7727ZM275.114 84.7727C265.341 84.7727 260.341 75.8182 260.341 63.6364C260.341 51.4545 265.341 42.4545 275.114 42.4545C284.705 42.4545 289.705 51.4545 289.705 63.6364C289.705 75.8182 284.705 84.7727 275.114 84.7727Z" fill="#27272A"/>
<path d="M334 98.4091H354.455L366.455 54.5H367.318L379.318 98.4091H399.818L418.773 28.5909H399.227L388.591 75.2273H388L376.545 28.5909H357.318L346.045 75.5H345.409L334.591 28.5909H315L334 98.4091Z" fill="#27272A"/>
<path d="M429.102 98.4091H448.466V58.9091C448.466 50.3182 454.739 44.4091 463.284 44.4091C465.966 44.4091 469.648 44.8636 471.466 45.4545V28.2727C469.739 27.8636 467.33 27.5909 465.375 27.5909C457.557 27.5909 451.148 32.1364 448.602 40.7727H447.875V28.5909H429.102V98.4091Z" fill="#27272A"/>
<path d="M481.477 98.4091H500.841V28.5909H481.477V98.4091ZM491.205 19.5909C496.977 19.5909 501.705 15.1818 501.705 9.77273C501.705 4.4091 496.977 0 491.205 0C485.477 0 480.75 4.4091 480.75 9.77273C480.75 15.1818 485.477 19.5909 491.205 19.5909Z" fill="#27272A"/>
<path d="M553.898 28.5909H540.034V23.9091C540.034 19.1818 541.943 16.4091 547.625 16.4091C549.943 16.4091 552.307 16.9091 553.852 17.4091L557.261 2.86364C554.852 2.13637 549.534 0.954544 543.58 0.954544C530.443 0.954544 520.67 8.36364 520.67 23.5455V28.5909H510.807V43.1364H520.67V98.4091H540.034V43.1364H553.898V28.5909Z" fill="#27272A"/>
<path d="M602.864 28.5909H589.727V11.8636H570.364V28.5909H560.818V43.1364H570.364V79.5C570.273 93.1818 579.591 99.9546 593.636 99.3636C598.636 99.1818 602.182 98.1818 604.136 97.5455L601.091 83.1364C600.136 83.3182 598.091 83.7727 596.273 83.7727C592.409 83.7727 589.727 82.3182 589.727 76.9546V43.1364H602.864V28.5909Z" fill="#27272A"/>
<path d="M96 5.40912V52.4091L48 99.4091H0V52.4091L48 5.40912H96Z" fill="#2DD4BF"/>
</svg>
