<svg width="605" height="101" viewBox="0 0 605 101" fill="none" xmlns="http://www.w3.org/2000/svg">
<path d="M134.091 98.9546H153.773V60.5H191.636V44.2727H153.773V22.0909H195.727V5.86366H134.091V98.9546Z" fill="white"/>
<path d="M227.966 5.86366H208.602V98.9546H227.966V5.86366Z" fill="white"/>
<path d="M275.023 100.318C296.205 100.318 309.386 85.8182 309.386 64.3182C309.386 42.6818 296.205 28.2273 275.023 28.2273C253.841 28.2273 240.659 42.6818 240.659 64.3182C240.659 85.8182 253.841 100.318 275.023 100.318ZM275.114 85.3182C265.341 85.3182 260.341 76.3637 260.341 64.1818C260.341 52 265.341 43 275.114 43C284.705 43 289.705 52 289.705 64.1818C289.705 76.3637 284.705 85.3182 275.114 85.3182Z" fill="white"/>
<path d="M334 98.9546H354.455L366.455 55.0455H367.318L379.318 98.9546H399.818L418.773 29.1364H399.227L388.591 75.7728H388L376.545 29.1364H357.318L346.045 76.0455H345.409L334.591 29.1364H315L334 98.9546Z" fill="white"/>
<path d="M429.102 98.9546H448.466V59.4546C448.466 50.8637 454.739 44.9546 463.284 44.9546C465.966 44.9546 469.648 45.4091 471.466 46V28.8182C469.739 28.4091 467.33 28.1364 465.375 28.1364C457.557 28.1364 451.148 32.6818 448.602 41.3182H447.875V29.1364H429.102V98.9546Z" fill="white"/>
<path d="M481.477 98.9546H500.841V29.1364H481.477V98.9546ZM491.205 20.1364C496.977 20.1364 501.705 15.7273 501.705 10.3182C501.705 4.95457 496.977 0.545471 491.205 0.545471C485.477 0.545471 480.75 4.95457 480.75 10.3182C480.75 15.7273 485.477 20.1364 491.205 20.1364Z" fill="white"/>
<path d="M553.898 29.1364H540.034V24.4546C540.034 19.7273 541.943 16.9546 547.625 16.9546C549.943 16.9546 552.307 17.4546 553.852 17.9546L557.261 3.40911C554.852 2.68184 549.534 1.50002 543.58 1.50002C530.443 1.50002 520.67 8.90911 520.67 24.0909V29.1364H510.807V43.6818H520.67V98.9546H540.034V43.6818H553.898V29.1364Z" fill="white"/>
<path d="M602.864 29.1364H589.727V12.4091H570.364V29.1364H560.818V43.6818H570.364V80.0455C570.273 93.7273 579.591 100.5 593.636 99.9091C598.636 99.7273 602.182 98.7273 604.136 98.0909L601.091 83.6818C600.136 83.8637 598.091 84.3182 596.273 84.3182C592.409 84.3182 589.727 82.8637 589.727 77.5V43.6818H602.864V29.1364Z" fill="white"/>
<path d="M96 5.95459V52.9546L48 99.9546H0V52.9546L48 5.95459H96Z" fill="white"/>
</svg>
