<svg width="608" height="155" viewBox="0 0 608 155" fill="none" xmlns="http://www.w3.org/2000/svg">
<path d="M134.091 124H153.773V85.5455H191.636V69.3182H153.773V47.1364H195.727V30.9091H134.091V124ZM227.966 30.9091H208.602V124H227.966V30.9091ZM275.023 125.364C296.205 125.364 309.386 110.864 309.386 89.3636C309.386 67.7273 296.205 53.2727 275.023 53.2727C253.841 53.2727 240.659 67.7273 240.659 89.3636C240.659 110.864 253.841 125.364 275.023 125.364ZM275.114 110.364C265.341 110.364 260.341 101.409 260.341 89.2273C260.341 77.0455 265.341 68.0455 275.114 68.0455C284.705 68.0455 289.705 77.0455 289.705 89.2273C289.705 101.409 284.705 110.364 275.114 110.364ZM334 124H354.455L366.455 80.0909H367.318L379.318 124H399.818L418.773 54.1818H399.227L388.591 100.818H388L376.545 54.1818H357.318L346.045 101.091H345.409L334.591 54.1818H315L334 124ZM429.102 124H448.466V84.5C448.466 75.9091 454.739 70 463.284 70C465.966 70 469.648 70.4545 471.466 71.0455V53.8636C469.739 53.4545 467.33 53.1818 465.375 53.1818C457.557 53.1818 451.148 57.7273 448.602 66.3636H447.875V54.1818H429.102V124ZM481.477 124H500.841V54.1818H481.477V124ZM491.205 45.1818C496.977 45.1818 501.705 40.7727 501.705 35.3636C501.705 30 496.977 25.5909 491.205 25.5909C485.477 25.5909 480.75 30 480.75 35.3636C480.75 40.7727 485.477 45.1818 491.205 45.1818ZM553.898 54.1818H540.034V49.5C540.034 44.7727 541.943 42 547.625 42C549.943 42 552.307 42.5 553.852 43L557.261 28.4545C554.852 27.7273 549.534 26.5454 543.58 26.5454C530.443 26.5454 520.67 33.9545 520.67 49.1364V54.1818H510.807V68.7273H520.67V124H540.034V68.7273H553.898V54.1818ZM602.864 54.1818H589.727V37.4545H570.364V54.1818H560.818V68.7273H570.364V105.091C570.273 118.773 579.591 125.545 593.636 124.955C598.636 124.773 602.182 123.773 604.136 123.136L601.091 108.727C600.136 108.909 598.091 109.364 596.273 109.364C592.409 109.364 589.727 107.909 589.727 102.545V68.7273H602.864V54.1818Z" fill="#272731"/>
<path d="M96 31V78L48 125H0V78L48 31H96Z" fill="#2DD4BF"/>
</svg>
