<svg width="680" height="180" viewBox="0 0 680 180" fill="none" xmlns="http://www.w3.org/2000/svg">
<rect width="680" height="180" fill="white"/>
<path d="M170.091 137H189.773V98.5454H227.636V82.3182H189.773V60.1363H231.727V43.9091H170.091V137Z" fill="#272731"/>
<path d="M263.966 43.9091H244.602V137H263.966V43.9091Z" fill="#272731"/>
<path d="M311.023 138.364C332.204 138.364 345.386 123.864 345.386 102.364C345.386 80.7272 332.204 66.2727 311.023 66.2727C289.841 66.2727 276.659 80.7272 276.659 102.364C276.659 123.864 289.841 138.364 311.023 138.364ZM311.114 123.364C301.341 123.364 296.341 114.409 296.341 102.227C296.341 90.0454 301.341 81.0454 311.114 81.0454C320.704 81.0454 325.704 90.0454 325.704 102.227C325.704 114.409 320.704 123.364 311.114 123.364Z" fill="#272731"/>
<path d="M370 137H390.454L402.454 93.0909H403.318L415.318 137H435.818L454.773 67.1818H435.227L424.591 113.818H424L412.545 67.1818H393.318L382.045 114.091H381.409L370.591 67.1818H351L370 137Z" fill="#272731"/>
<path d="M465.102 137H484.466V97.5C484.466 88.9091 490.739 83 499.284 83C501.966 83 505.648 83.4545 507.466 84.0454V66.8636C505.739 66.4545 503.329 66.1818 501.375 66.1818C493.557 66.1818 487.148 70.7272 484.602 79.3636H483.875V67.1818H465.102V137Z" fill="#272731"/>
<path d="M517.477 137H536.841V67.1818H517.477V137ZM527.204 58.1818C532.977 58.1818 537.704 53.7727 537.704 48.3636C537.704 43 532.977 38.5909 527.204 38.5909C521.477 38.5909 516.75 43 516.75 48.3636C516.75 53.7727 521.477 58.1818 527.204 58.1818Z" fill="#272731"/>
<path d="M589.898 67.1818H576.034V62.5C576.034 57.7727 577.943 55 583.625 55C585.943 55 588.307 55.5 589.852 56L593.261 41.4545C590.852 40.7272 585.534 39.5454 579.579 39.5454C566.443 39.5454 556.67 46.9545 556.67 62.1363V67.1818H546.807V81.7272H556.67V137H576.034V81.7272H589.898V67.1818Z" fill="#272731"/>
<path d="M638.864 67.1818H625.727V50.4545H606.364V67.1818H596.818V81.7272H606.364V118.091C606.273 131.773 615.591 138.545 629.636 137.955C634.636 137.773 638.182 136.773 640.136 136.136L637.091 121.727C636.136 121.909 634.091 122.364 632.273 122.364C628.409 122.364 625.727 120.909 625.727 115.545V81.7272H638.864V67.1818Z" fill="#272731"/>
<path d="M132 44V91L84 138H36V91L84 44H132Z" fill="#2DD4BF"/>
</svg>
