<svg width="2000" height="160" viewBox="0 0 2000 160" fill="none" xmlns="http://www.w3.org/2000/svg">
<rect width="2000" height="160" fill="#272731"/>
<path d="M886 113.084H899.357V87.261H925.054V76.364H899.357V61.4683H927.83V50.5713H886V113.084Z" fill="white"/>
<path d="M949.709 50.5713H936.568V113.084H949.709V50.5713Z" fill="white"/>
<path d="M981.644 114C996.02 114 1004.97 104.263 1004.97 89.8251C1004.97 75.2957 996.02 65.5891 981.644 65.5891C967.269 65.5891 958.323 75.2957 958.323 89.8251C958.323 104.263 967.269 114 981.644 114ZM981.706 103.927C975.074 103.927 971.681 97.9139 971.681 89.7335C971.681 81.5531 975.074 75.5093 981.706 75.5093C988.215 75.5093 991.608 81.5531 991.608 89.7335C991.608 97.9139 988.215 103.927 981.706 103.927Z" fill="white"/>
<path d="M1021.67 113.084H1035.55L1043.7 83.5982H1044.28L1052.43 113.084H1066.34L1079.2 66.1995H1065.94L1058.72 97.5171H1058.32L1050.54 66.1995H1037.49L1029.84 97.7002H1029.41L1022.07 66.1995H1008.78L1021.67 113.084Z" fill="white"/>
<path d="M1086.21 113.084H1099.35V86.559C1099.35 80.79 1103.61 76.8219 1109.41 76.8219C1111.23 76.8219 1113.73 77.1271 1114.96 77.5239V65.9859C1113.79 65.7112 1112.15 65.528 1110.83 65.528C1105.52 65.528 1101.17 68.5804 1099.45 74.38H1098.95V66.1995H1086.21V113.084Z" fill="white"/>
<path d="M1121.76 113.084H1134.9V66.1995H1121.76V113.084ZM1128.36 60.1558C1132.28 60.1558 1135.48 57.195 1135.48 53.5626C1135.48 49.9608 1132.28 47 1128.36 47C1124.47 47 1121.26 49.9608 1121.26 53.5626C1121.26 57.195 1124.47 60.1558 1128.36 60.1558Z" fill="white"/>
<path d="M1170.91 66.1995H1161.5V63.0556C1161.5 59.8811 1162.79 58.0191 1166.65 58.0191C1168.22 58.0191 1169.83 58.3549 1170.87 58.6907L1173.19 48.923C1171.55 48.4346 1167.94 47.641 1163.9 47.641C1154.99 47.641 1148.36 52.6164 1148.36 62.8114V66.1995H1141.66V75.9672H1148.36V113.084H1161.5V75.9672H1170.91V66.1995Z" fill="white"/>
<path d="M1204.14 66.1995H1195.22V54.9667H1182.08V66.1995H1175.6V75.9672H1182.08V100.386C1182.02 109.574 1188.34 114.122 1197.87 113.725C1201.27 113.603 1203.67 112.932 1205 112.504L1202.93 102.828C1202.29 102.95 1200.9 103.256 1199.66 103.256C1197.04 103.256 1195.22 102.279 1195.22 98.677V75.9672H1204.14V66.1995Z" fill="white"/>
<path d="M860 50V82L827.5 114H795V82L827.5 50H860Z" fill="#2DD4BF"/>
</svg>
