<svg width="2000" height="420" viewBox="0 0 2000 420" fill="none" xmlns="http://www.w3.org/2000/svg">
<rect width="2000" height="420" fill="white"/>
<path d="M830.091 257H849.773V218.545H887.636V202.318H849.773V180.136H891.727V163.909H830.091V257ZM923.966 163.909H904.602V257H923.966V163.909ZM971.023 258.364C992.205 258.364 1005.39 243.864 1005.39 222.364C1005.39 200.727 992.205 186.273 971.023 186.273C949.841 186.273 936.659 200.727 936.659 222.364C936.659 243.864 949.841 258.364 971.023 258.364ZM971.114 243.364C961.341 243.364 956.341 234.409 956.341 222.227C956.341 210.045 961.341 201.045 971.114 201.045C980.705 201.045 985.705 210.045 985.705 222.227C985.705 234.409 980.705 243.364 971.114 243.364ZM1030 257H1050.45L1062.45 213.091H1063.32L1075.32 257H1095.82L1114.77 187.182H1095.23L1084.59 233.818H1084L1072.55 187.182H1053.32L1042.05 234.091H1041.41L1030.59 187.182H1011L1030 257ZM1125.1 257H1144.47V217.5C1144.47 208.909 1150.74 203 1159.28 203C1161.97 203 1165.65 203.455 1167.47 204.045V186.864C1165.74 186.455 1163.33 186.182 1161.38 186.182C1153.56 186.182 1147.15 190.727 1144.6 199.364H1143.88V187.182H1125.1V257ZM1177.48 257H1196.84V187.182H1177.48V257ZM1187.2 178.182C1192.98 178.182 1197.7 173.773 1197.7 168.364C1197.7 163 1192.98 158.591 1187.2 158.591C1181.48 158.591 1176.75 163 1176.75 168.364C1176.75 173.773 1181.48 178.182 1187.2 178.182ZM1249.9 187.182H1236.03V182.5C1236.03 177.773 1237.94 175 1243.62 175C1245.94 175 1248.31 175.5 1249.85 176L1253.26 161.455C1250.85 160.727 1245.53 159.545 1239.58 159.545C1226.44 159.545 1216.67 166.955 1216.67 182.136V187.182H1206.81V201.727H1216.67V257H1236.03V201.727H1249.9V187.182ZM1298.86 187.182H1285.73V170.455H1266.36V187.182H1256.82V201.727H1266.36V238.091C1266.27 251.773 1275.59 258.545 1289.64 257.955C1294.64 257.773 1298.18 256.773 1300.14 256.136L1297.09 241.727C1296.14 241.909 1294.09 242.364 1292.27 242.364C1288.41 242.364 1285.73 240.909 1285.73 235.545V201.727H1298.86V187.182Z" fill="#272731"/>
<path d="M792 164V211L744 258H696V211L744 164H792Z" fill="#2DD4BF"/>
</svg>
